<svg width="217" height="45" viewBox="0 0 217 45" fill="none" xmlns="http://www.w3.org/2000/svg">
<path d="M136.104 0.226178V12.4624H132.855V0.226178H136.104ZM140.015 0.226178V2.74806H129V0.226178H140.015Z" fill="white"/>
<path d="M146.479 12.6886C145.534 12.6886 144.688 12.5378 143.938 12.2362C143.189 11.9271 142.552 11.5011 142.027 10.9583C141.51 10.4155 141.113 9.78596 140.836 9.06973C140.559 8.34596 140.42 7.57696 140.42 6.76272V6.31036C140.42 5.38303 140.551 4.53487 140.814 3.76586C141.076 2.99686 141.45 2.32963 141.938 1.76419C142.432 1.19874 143.032 0.765235 143.736 0.463665C144.44 0.154555 145.235 0 146.119 0C146.981 0 147.745 0.143246 148.412 0.429738C149.079 0.71623 149.637 1.12335 150.087 1.6511C150.544 2.17885 150.889 2.81214 151.121 3.55099C151.353 4.2823 151.469 5.09654 151.469 5.99371V7.35078H141.803V5.17947H148.288V4.93068C148.288 4.47832 148.206 4.07497 148.041 3.72063C147.884 3.35874 147.644 3.07225 147.322 2.86115C146.999 2.65005 146.587 2.5445 146.085 2.5445C145.658 2.5445 145.291 2.63874 144.984 2.82722C144.676 3.0157 144.425 3.27958 144.231 3.61884C144.043 3.95811 143.901 4.35769 143.803 4.81759C143.714 5.26994 143.669 5.76753 143.669 6.31036V6.76272C143.669 7.25277 143.736 7.70512 143.871 8.11978C144.013 8.53444 144.212 8.89256 144.467 9.19413C144.729 9.4957 145.044 9.72942 145.411 9.89528C145.785 10.0611 146.209 10.1441 146.681 10.1441C147.265 10.1441 147.809 10.031 148.311 9.80481C148.82 9.57109 149.259 9.22052 149.626 8.75308L151.2 10.472C150.945 10.8415 150.596 11.1958 150.154 11.5351C149.72 11.8743 149.195 12.1533 148.581 12.3719C147.966 12.583 147.265 12.6886 146.479 12.6886Z" fill="white"/>
<path d="M155.92 0.226178L157.932 3.9468L160.001 0.226178H163.451L160.012 6.20858L163.609 12.4624H160.147L157.955 8.5269L155.763 12.4624H152.301L155.898 6.20858L152.458 0.226178H155.92Z" fill="white"/>
<path d="M173.354 5.16816V7.70135H167.172V5.16816H173.354ZM168.251 0.226178V12.4624H165.014V0.226178H168.251ZM175.546 0.226178V12.4624H172.297V0.226178H175.546Z" fill="white"/>
<path d="M181.29 7.91622L185.37 0.226178H188.607V12.4624H185.37V4.76104L181.29 12.4624H178.052V0.226178H181.29V7.91622Z" fill="white"/>
<path d="M194.553 0.226178V12.4624H191.316V0.226178H194.553ZM202.455 0.226178L197.217 7.8823H193.98L193.587 4.87413H195.733L198.352 0.226178H202.455ZM198.499 12.4624L195.509 7.29423L198.33 5.7223L202.837 12.4624H198.499Z" fill="white"/>
<path d="M210.616 9.70303V4.25214C210.616 3.8601 210.552 3.5246 210.424 3.24565C210.297 2.95916 210.098 2.73675 209.829 2.57843C209.566 2.4201 209.225 2.34094 208.806 2.34094C208.446 2.34094 208.135 2.40502 207.873 2.53319C207.611 2.65382 207.408 2.83099 207.266 3.06471C207.124 3.29089 207.052 3.55853 207.052 3.86764H203.815C203.815 3.34743 203.935 2.85361 204.175 2.38618C204.415 1.91874 204.763 1.50785 205.22 1.15351C205.677 0.791622 206.221 0.5089 206.85 0.30534C207.487 0.10178 208.199 0 208.986 0C209.93 0 210.769 0.158324 211.504 0.474973C212.238 0.791622 212.815 1.2666 213.235 1.89989C213.662 2.53319 213.875 3.32481 213.875 4.27476V9.51078C213.875 10.1818 213.916 10.7321 213.999 11.1619C214.081 11.5841 214.201 11.9535 214.359 12.2701V12.4624H211.088C210.93 12.1307 210.81 11.716 210.728 11.2184C210.653 10.7133 210.616 10.2082 210.616 9.70303ZM211.043 5.00984L211.065 6.85319H209.255C208.828 6.85319 208.457 6.90219 208.143 7.0002C207.828 7.09821 207.569 7.23769 207.367 7.41863C207.165 7.59204 207.015 7.7956 206.917 8.02931C206.828 8.26303 206.783 8.51936 206.783 8.79832C206.783 9.07727 206.846 9.32983 206.974 9.55601C207.101 9.77465 207.285 9.94805 207.524 10.0762C207.764 10.1968 208.045 10.2572 208.367 10.2572C208.855 10.2572 209.278 10.1592 209.638 9.96313C209.997 9.76711 210.275 9.52586 210.469 9.23936C210.672 8.95287 210.777 8.68146 210.784 8.42512L211.638 9.80481C211.519 10.1139 211.354 10.4343 211.144 10.7661C210.941 11.0978 210.683 11.4107 210.368 11.7047C210.054 11.9912 209.675 12.2287 209.233 12.4172C208.791 12.5981 208.266 12.6886 207.659 12.6886C206.888 12.6886 206.187 12.534 205.557 12.2249C204.935 11.9083 204.441 11.4748 204.074 10.9244C203.714 10.3665 203.534 9.73318 203.534 9.0245C203.534 8.38366 203.654 7.81444 203.894 7.31685C204.134 6.81926 204.486 6.40083 204.95 6.06157C205.423 5.71476 206.011 5.45466 206.715 5.28125C207.42 5.10031 208.236 5.00984 209.166 5.00984H211.043Z" fill="white"/>
<path d="M133.136 35.5118L137.217 27.8218H140.454V40.058H137.217V32.3567L133.136 40.058H129.899V27.8218H133.136V35.5118Z" fill="white"/>
<path d="M152.29 38.6783L155.516 27.8218H158.989L154.1 41.9014C153.995 42.2105 153.852 42.5422 153.672 42.8965C153.5 43.2509 153.264 43.5864 152.964 43.903C152.672 44.2272 152.301 44.4911 151.851 44.6947C151.409 44.8982 150.866 45 150.222 45C149.914 45 149.663 44.9812 149.469 44.9435C149.274 44.9058 149.041 44.853 148.772 44.7851V42.399C148.854 42.399 148.94 42.399 149.03 42.399C149.12 42.4065 149.206 42.4103 149.289 42.4103C149.716 42.4103 150.064 42.3613 150.334 42.2632C150.604 42.1652 150.821 42.0145 150.986 41.8109C151.151 41.6149 151.282 41.3585 151.379 41.0419L152.29 38.6783ZM150.941 27.8218L153.582 36.688L154.043 40.1372L151.84 40.3747L147.468 27.8218H150.941Z" fill="white"/>
<path d="M165.149 37.7397C165.546 37.7397 165.898 37.6643 166.205 37.5135C166.512 37.3552 166.752 37.1366 166.925 36.8576C167.104 36.5711 167.198 36.2356 167.206 35.8511H170.252C170.244 36.7106 170.016 37.4758 169.566 38.1468C169.116 38.8103 168.513 39.3342 167.756 39.7188C167 40.0957 166.153 40.2842 165.216 40.2842C164.272 40.2842 163.448 40.1259 162.743 39.8092C162.046 39.4926 161.466 39.0553 161.001 38.4974C160.536 37.9319 160.188 37.276 159.956 36.5296C159.723 35.7757 159.607 34.969 159.607 34.1095V33.7816C159.607 32.9146 159.723 32.1079 159.956 31.3615C160.188 30.6076 160.536 29.9516 161.001 29.3937C161.466 28.8283 162.046 28.3872 162.743 28.0706C163.44 27.7539 164.257 27.5956 165.194 27.5956C166.19 27.5956 167.063 27.7879 167.813 28.1724C168.569 28.5569 169.161 29.1072 169.589 29.8235C170.023 30.5322 170.244 31.3728 170.252 32.3454H167.206C167.198 31.9382 167.112 31.5688 166.947 31.2371C166.79 30.9054 166.557 30.6415 166.25 30.4455C165.95 30.2419 165.58 30.1401 165.137 30.1401C164.665 30.1401 164.279 30.2419 163.98 30.4455C163.68 30.6415 163.448 30.9129 163.283 31.2597C163.118 31.599 163.002 31.9872 162.934 32.4245C162.874 32.8543 162.844 33.3066 162.844 33.7816V34.1095C162.844 34.5845 162.874 35.0406 162.934 35.4779C162.994 35.9152 163.107 36.3035 163.272 36.6427C163.444 36.982 163.68 37.2496 163.98 37.4457C164.279 37.6417 164.669 37.7397 165.149 37.7397Z" fill="white"/>
<path d="M180.312 27.8218V30.3776H174.332V27.8218H180.312ZM182.683 27.8218V40.058H179.446V27.8218H182.683ZM173.523 27.8218H176.704L176.378 33.9964C176.333 34.8785 176.239 35.6551 176.097 36.3261C175.954 36.9971 175.763 37.5701 175.523 38.045C175.291 38.52 175.01 38.9083 174.68 39.2099C174.358 39.5039 173.98 39.7188 173.545 39.8545C173.118 39.9902 172.646 40.058 172.129 40.058H171.14L171.106 37.4909L171.522 37.4457C171.762 37.423 171.972 37.3552 172.151 37.2421C172.339 37.1215 172.496 36.9518 172.623 36.7332C172.758 36.507 172.871 36.2243 172.961 35.885C173.051 35.5382 173.122 35.1311 173.174 34.6637C173.234 34.1962 173.275 33.6572 173.298 33.0465L173.523 27.8218Z" fill="white"/>
<path d="M188.798 38.6783L192.024 27.8218H195.497L190.608 41.9014C190.503 42.2105 190.361 42.5422 190.181 42.8965C190.008 43.2509 189.772 43.5864 189.473 43.903C189.18 44.2272 188.809 44.4911 188.36 44.6947C187.918 44.8982 187.374 45 186.73 45C186.423 45 186.172 44.9812 185.977 44.9435C185.782 44.9058 185.55 44.853 185.28 44.7851V42.399C185.362 42.399 185.449 42.399 185.539 42.399C185.628 42.4065 185.715 42.4103 185.797 42.4103C186.224 42.4103 186.573 42.3613 186.842 42.2632C187.112 42.1652 187.329 42.0145 187.494 41.8109C187.659 41.6149 187.79 41.3585 187.888 41.0419L188.798 38.6783ZM187.449 27.8218L190.091 36.688L190.552 40.1372L188.349 40.3747L183.976 27.8218H187.449Z" fill="white"/>
<path d="M205.063 27.8218V30.3776H200.005V40.058H196.768V27.8218H205.063Z" fill="white"/>
<path d="M209.683 35.5118L213.763 27.8218H217V40.058H213.763V32.3567L209.683 40.058H206.445V27.8218H209.683V35.5118Z" fill="white"/>
<path d="M23.5136 40H0V32.908H6.5795V7.09201H0V0H20.5H23.5136V7.09201H20.2239H16.9341V32.908H23.5136V40Z" fill="white"/>
<path d="M67.7169 7.09201H50.8293V40H40.4747V7.09201H27H23.5136V0H27H65.1208L67.7169 7.09201Z" fill="white"/>
<path d="M106 0L91.3579 40H79.7629L65.1208 0H75.9878L85.6952 28.0994L95.4027 0H106Z" fill="white"/>
<rect x="107" y="25" width="15" height="15" fill="#FF8000"/>
</svg>
